REM DIRINDEX 1\4,1\2\5,1\2\6,1\2\7,1\3\8,1\3\9,1\3\10,1\3\11
REM DIRNAME folder01,folder02,folder03,folder04,folder05,folder06,folder07,folder08,folder09,folder10,folder11
TITLE ""
FILE "t_k_513-523.mp3" MP3
  TRACK 01 AUDIO
    TITLE "5:cjc108_1544"
    INDEX 01 00:00:00
  TRACK 02 AUDIO
    TITLE "0:"
    INDEX 01 00:00:66
  TRACK 03 AUDIO
    TITLE "6:cjc108_1545"
    INDEX 01 00:01:15
  TRACK 04 AUDIO
    TITLE "0:"
    INDEX 01 00:03:23
  TRACK 05 AUDIO
    TITLE "7:cjc108_1546"
    INDEX 01 00:03:43
  TRACK 06 AUDIO
    TITLE "0:"
    INDEX 01 00:09:18
  TRACK 07 AUDIO
    TITLE "5:cjc108_1547"
    INDEX 01 00:10:10
  TRACK 08 AUDIO
    TITLE "0:"
    INDEX 01 00:11:13
  TRACK 09 AUDIO
    TITLE "6:cjc108_1548"
    INDEX 01 00:11:37
  TRACK 10 AUDIO
    TITLE "0:"
    INDEX 01 00:13:47
  TRACK 11 AUDIO
    TITLE "7:cjc108_1549"
    INDEX 01 00:13:67
  TRACK 12 AUDIO
    TITLE "0:"
    INDEX 01 00:19:63
  TRACK 13 AUDIO
    TITLE "5:cjc108_1550"
    INDEX 01 00:20:59
  TRACK 14 AUDIO
    TITLE "0:"
    INDEX 01 00:21:70
  TRACK 15 AUDIO
    TITLE "6:cjc108_1551"
    INDEX 01 00:22:21
  TRACK 16 AUDIO
    TITLE "0:"
    INDEX 01 00:24:16
  TRACK 17 AUDIO
    TITLE "7:cjc108_1552"
    INDEX 01 00:24:29
  TRACK 18 AUDIO
    TITLE "0:"
    INDEX 01 00:29:33
  TRACK 19 AUDIO
    TITLE "5:cjc108_1553"
    INDEX 01 00:30:20
  TRACK 20 AUDIO
    TITLE "0:"
    INDEX 01 00:31:43
  TRACK 21 AUDIO
    TITLE "6:cjc108_1554"
    INDEX 01 00:31:63
  TRACK 22 AUDIO
    TITLE "0:"
    INDEX 01 00:34:55
  TRACK 23 AUDIO
    TITLE "7:cjc108_1555"
    INDEX 01 00:34:73
  TRACK 24 AUDIO
    TITLE "0:"
    INDEX 01 00:39:60
  TRACK 25 AUDIO
    TITLE "5:cjc108_1556"
    INDEX 01 00:40:34
  TRACK 26 AUDIO
    TITLE "0:"
    INDEX 01 00:41:28
  TRACK 27 AUDIO
    TITLE "6:cjc108_1557"
    INDEX 01 00:41:44
  TRACK 28 AUDIO
    TITLE "0:"
    INDEX 01 00:44:48
  TRACK 29 AUDIO
    TITLE "7:cjc108_1558"
    INDEX 01 00:44:63
  TRACK 30 AUDIO
    TITLE "0:"
    INDEX 01 00:50:66
  TRACK 31 AUDIO
    TITLE "5:cjc108_1559"
    INDEX 01 00:51:48
  TRACK 32 AUDIO
    TITLE "0:"
    INDEX 01 00:52:55
  TRACK 33 AUDIO
    TITLE "6:cjc108_1560"
    INDEX 01 00:53:00
  TRACK 34 AUDIO
    TITLE "0:"
    INDEX 01 00:55:12
  TRACK 35 AUDIO
    TITLE "7:cjc108_1561"
    INDEX 01 00:55:24
  TRACK 36 AUDIO
    TITLE "0:"
    INDEX 01 01:02:01
  TRACK 37 AUDIO
    TITLE "5:cjc108_1562"
    INDEX 01 01:02:59
  TRACK 38 AUDIO
    TITLE "0:"
    INDEX 01 01:04:03
  TRACK 39 AUDIO
    TITLE "6:cjc108_1563"
    INDEX 01 01:04:29
  TRACK 40 AUDIO
    TITLE "0:"
    INDEX 01 01:05:48
  TRACK 41 AUDIO
    TITLE "7:cjc108_1564"
    INDEX 01 01:06:00
  TRACK 42 AUDIO
    TITLE "0:"
    INDEX 01 01:10:69
  TRACK 43 AUDIO
    TITLE "5:cjc108_1565"
    INDEX 01 01:11:62
  TRACK 44 AUDIO
    TITLE "0:"
    INDEX 01 01:13:08
  TRACK 45 AUDIO
    TITLE "6:cjc108_1566"
    INDEX 01 01:13:18
  TRACK 46 AUDIO
    TITLE "0:"
    INDEX 01 01:15:19
  TRACK 47 AUDIO
    TITLE "7:cjc108_1567"
    INDEX 01 01:15:40
  TRACK 48 AUDIO
    TITLE "0:"
    INDEX 01 01:22:19
  TRACK 49 AUDIO
    TITLE "5:cjc108_1568"
    INDEX 01 01:23:09
  TRACK 50 AUDIO
    TITLE "0:"
    INDEX 01 01:24:18
  TRACK 51 AUDIO
    TITLE "6:cjc108_1569"
    INDEX 01 01:24:39
  TRACK 52 AUDIO
    TITLE "0:"
    INDEX 01 01:25:55
  TRACK 53 AUDIO
    TITLE "7:cjc108_1570"
    INDEX 01 01:25:72
  TRACK 54 AUDIO
    TITLE "0:"
    INDEX 01 01:31:55
  TRACK 55 AUDIO
    TITLE "5:cjc108_1571"
    INDEX 01 01:32:47
  TRACK 56 AUDIO
    TITLE "0:"
    INDEX 01 01:33:54
  TRACK 57 AUDIO
    TITLE "6:cjc108_1572"
    INDEX 01 01:33:74
  TRACK 58 AUDIO
    TITLE "0:"
    INDEX 01 01:35:67
  TRACK 59 AUDIO
    TITLE "7:cjc108_1573"
    INDEX 01 01:36:09
  TRACK 60 AUDIO
    TITLE "0:"
    INDEX 01 01:40:58
  TRACK 61 AUDIO
    TITLE "5:cjc108_1574"
    INDEX 01 01:41:56
  TRACK 62 AUDIO
    TITLE "0:"
    INDEX 01 01:42:67
  TRACK 63 AUDIO
    TITLE "6:cjc108_1575"
    INDEX 01 01:43:03
  TRACK 64 AUDIO
    TITLE "0:"
    INDEX 01 01:44:13
  TRACK 65 AUDIO
    TITLE "7:cjc108_1576"
    INDEX 01 01:44:36
  TRACK 66 AUDIO
    TITLE "0:"
    INDEX 01 01:50:43
